<?xml version="1.0" encoding="UTF-8"?>
<svg id="Layer_2" data-name="Layer 2" xmlns="http://www.w3.org/2000/svg" width="210.8" height="326.82" viewBox="0 0 210.8 326.82">
  <defs>
    <style>
      .cls-1 {
        fill: #d7d413;
      }

      .cls-1, .cls-2, .cls-3, .cls-4, .cls-5 {
        fill-rule: evenodd;
        stroke-width: 0px;
      }

      .cls-2 {
        fill: #e7642c;
      }

      .cls-3 {
        fill: #75af23;
      }

      .cls-4 {
        fill: #1f140f;
      }

      .cls-5 {
        fill: #009a8a;
      }
    </style>
  </defs>
  <g id="Capa_1" data-name="Capa 1">
    <g>
      <path class="cls-4" d="M210.79,200.61c.33,42.21-17.57,68.28-48.9,86.08-6.5,3.69-13.4,6.71-20.26,9.73-12.83,5.64-23.91,13.42-31.07,25.74-3.21,5.52-5.67,6.66-9.38.54-7.17-11.84-17.68-19.59-30.24-25.27-13.32-6.02-26.81-11.83-38.14-21.58C2.99,250.18-4.4,217.29,2.27,180.27c7.61-42.21,26.45-79.37,51.82-113.73,15.07-20.41,31.1-40.25,43.35-62.65,2.16-3.95,4.71-5.89,7.71-.9,22.73,37.78,55.08,68.37,77.89,106.36,18.18,30.28,23.36,62.93,27.75,91.27Z"/>
      <path class="cls-3" d="M191.94,143.81c-16.04-42.66-19.09-19.09-61.25,37.11l-29.7,55.16c-1.48,11-5.95,49.32,1.42,61.4,3.81,6.25,31.84-12.78,35.13-18.42l17.56-16.72c13.28-18.4,8.15-16.4,26.13-46.63,7.5-15.89,24.27-35.82,10.71-71.9Z"/>
      <g>
        <path class="cls-3" d="M147.43,78.98c-.44-1.09-.55-2.22-.42-3.38-.57-4.02-2.15-7.67-4.05-11.21-14.51-18.28-30.63-35.36-41.32-56.78-3.35,6.69-6.66,12.96-10.41,18.98-.54,1.72-.1,3.35.5,4.95,1.26,3.37,2.41,6.78,3.6,10.18,5.27,15.04,7.06,30.42,4.86,46.25-.45,3.22-1.63,6.38-1.12,9.71,1.93,1.31,2.6-.54,3.37-1.51,4.06-5.15,7.64-10.65,11.46-15.97,2.1-2.93,4-5.93,5.37-9.13.48-1.27.93-2.55,1.32-3.86.84-2.88.86-5.81.58-8.76-.01-.12-.01-.24,0-.37-.02-.25-.05-.5-.1-.74.13.19.11.46.1.74.05.67.03,1.4.3,2.09.11,3.95-.75,7.54-2.19,10.9-2.15,5.68-5.19,10.94-8.48,16.04-12.56,19.42-23.22,39.69-29.85,62.01-3.39,11.43-5.67,22.97-6.63,34.81.1,1.27-.82,2.16-1.23,3.24-1.36,4.93-.98,10.01-1.24,15.03.09.7.37,1.33.78,1.9,4.68,4.6,8.88,9.65,13.49,14.3,2.23,2.82,8.7,36.29,11.39,38.7l5.75-27.4c-.82-2.54-4.59-18.91-4.72-21.49.17-3.4-.39-6.82.35-10.21.74-3.95,1.12-7.96,2.05-11.86,3.75-15.84,11.05-30,20.54-43.12,4.48-6.19,9.09-12.3,13.23-18.72,8.86-13.78,14.85-28.41,12.75-45.29Z"/>
        <path class="cls-4" d="M162.73,162.58c-6.48,6.36-12.79,12.9-19.33,19.22-6.29,6.3-12.58,12.6-18.88,18.89-9.62,9.62-18.66,19.65-22.82,33.29l-5.28,27.98c.08,5.83.63,11.64,2.48,17.22.68,2.06,1.37,4.35,4.24,4.44-.05-.84-.06-1.68-.17-2.52-.91-7.03-2.33-14.04-2.66-21.09-.63-13.83,3.96-26.24,11.97-37.38,7.4-10.28,16.34-19.18,25.42-27.97,8.99-8.7,17.86-17.54,25.08-27.84,1.41-2.02,3.23-3.86,3.56-6.49-1.75-.14-2.6,1.24-3.62,2.24Z"/>
        <path class="cls-2" d="M91.23,26.58c5.05,13.83,10.26,27.68,11.04,42.53.42,8.09-.14,16.29-1.81,24.32-.32,1.55-.55,3.12-.82,4.68.81,1.45-.02,2.72-.57,3.92-3.82,8.29-7.78,16.51-11.61,24.8-.48,1.03-.94,2.44-2.24,2.44-1.57,0-1.78-1.59-2.2-2.76-1.88-5.26-5.08-9.74-8.33-14.19-.73-1.42-1.99-2.49-2.64-3.97-.35-.89-1.06-1.53-1.64-2.27-.17-.2-.32-.43-.46-.65-.43-.86-1.21-1.42-1.84-2.1-1.49-1.77-2.59-3.79-3.68-5.82-.52-1.82-1.42-3.45-2.46-5.01-.98-2.72-2.94-5.14-2.53-8.28-.43-2.18-.55-4.43-1.63-6.45-.51-1.86.13-3.55.74-5.25,1.11-1.69,2.21-3.37,3.32-5.06,9.36-13.18,18.73-26.36,28.1-39.53.36-.5.84-.91,1.27-1.36Z"/>
        <path class="cls-2" d="M146.1,75.68c-1.05-3.77-2.1-7.53-3.15-11.3,12.88,14.91,23.09,31.68,33.58,48.24.95,1.5,2.23,2.82,2.66,4.62,1.63,4.25,1.45,7.14.8,11.4-.29,2.1-.6,3.62-.86,4.66-2.49,9.84-6.6,18.93-12.77,27.04-6.55,6.55-13.09,13.11-19.65,19.65-.81.81-1.71,1.53-2.58,2.3-1.41-1.21-1.17-2.84-1.08-4.42.66-11.83.58-23.66-.03-35.5-.45-8.86-1.2-17.7-1.34-26.56-.08-.76.12-1.48.48-2.13,6.13-10.94,7.16-22.57,4.76-34.68-.53-1.04-.47-2.24-.82-3.32Z"/>
        <path class="cls-5" d="M86.08,217.27c3.5,3.67,4.2,4.11,7.2,10.96.71,3,3.16,9.8,3.16,11.28,0,9.86,1.11,12.69,1.19,22.56.04,5.2.59,10.36,1.84,15.43.6,2.41,1.6,4.6,3.68,6.12.5,3.32,1,6.65,1.54,10.19,4.11-1.33,7.12-4.05,10.37-6.15,5.85-3.78,12.4-6.09,18.38-9.54,3.47-2,6.65-4.35,9.47-7.19,5.92-5.48,10.9-11.79,15.8-18.15.59-.97,1.29-1.87,1.86-2.86.52-.86,1.14-1.66,1.6-2.56,2.3-3.49,3.93-7.35,6.14-10.89,1.61-1.67,1.6-4.35,3.61-5.77,8.5-3.52,16.42-8.06,23.71-13.69,1.4-1.08,2.63-2.47,4.54-2.71.32.04.61.15.88.33.97,1.24.64,2.63.36,3.97-3.92,18.71-12.86,34.37-27.52,46.88-12.31,10.51-26.79,17.12-41.07,24.14-10.18,5-18.54,11.9-24.39,21.68-.27.46-.54.92-.85,1.34-1.63,2.18-2.56,2.25-4.07,0-1.65-2.47-3.34-4.91-5.12-7.3-6.01-8.03-14.58-12.6-23.27-16.81-10.53-5.1-20.95-10.37-30.66-16.88-14.87-9.97-25.07-23.64-31.18-40.41-.4-1.1-3.34-13.89-2.2-14.79,1.06-.84,4.4,11.67,5.32,12.12,9.39,9.5,21.55,14.97,32.49,22.19,2.65,1.75,5.46,3.27,8.39,4.54,4.54,2.26,9.07,4.56,13.63,6.79,4.11,2.07,7.03,5.78,11.21,8.24.4-3.12.73-6.07.78-8.98.21-12.31,1.68-24.57,1.44-36.9-.05-2.5-.19-5.14,1.75-7.21Z"/>
        <path class="cls-1" d="M196.17,169.64c2.25,6.21,3.03,13.32,4.05,19.82,1.07,6.85,1.87,13.74,1.2,20.7-.88,1.36.75,3.42-1.25,4.47-7.5,6.39-15.79,11.53-24.73,15.64-1.04.48-2.01,1.23-3.27.85-.39-.36-.42-.79-.22-1.26.53-1.1,1.07-2.2,1.51-3.34.32-.73.64-1.47.97-2.2,2.54-3.21,3.82-7.1,5.72-10.65.47-.89,1-1.76,1.35-2.72.71-.76.73-1.83,1.2-2.7.6-1.28,1.11-2.61,1.88-3.81.2-.7.41-1.39.74-2.04.78-1.29,1.22-2.72,1.75-4.12.67-1.57,1.01-3.25,1.76-4.79,1.09-5.96,4.1-11.34,5.24-17.29.38-1.97,1.64-4.62,2.12-6.57Z"/>
        <path class="cls-3" d="M197.65,165.12c-1.97-17.03-9.52-33.37-18.46-47.87-1.21,2.98-.22,9.52.03,12.76.82-1.78,1.42-3.64,1.81-5.56,6.29,11.35,6.97,15.65,11.97,26.83,1.21,6.07,2.95,18.08,3.71,23.13,1.96,12.95,2.08,21.96,3.44,40.23-3.83,22.85-16.35,43.91-35.96,57.03-20.76,13.88-45.66,19.26-58.63,42.41-12.15-19.27-30.04-25.56-49.14-36.22-20.64-11.52-34.91-27.06-43.09-49.36,1.02-.19,1.9.07,2.63.78.89-1.59-4.69-16.21-4.83-17.28-1.58-12.09-1.28-24.4,1.02-36.38,1.58-4.87,10.2-44.24,11.53-44.38-17,34.02-25.45,80.23-5.86,114.81,20.56,36.28,65.58,38.52,87.65,72.83,23.64-35.17,71.65-38.5,90.56-78.46,11.94-25.23,5.44-49.18,1.61-75.31Z"/>
        <path class="cls-5" d="M25.13,128.15c.18-.43.63-2.2,1.2-3.43,2.56-6.37,4.12-8.13,6.1-12.09.13.09.27.18.41.26,1.2,1.82.48,3.93.83,5.89,1.41,7.78,5.67,14.02,10.27,20.16,4.66,6.23,10.39,11.46,15.72,17.06,5.87,6.16,11.44,12.57,14.27,20.83.52,1.51,1.12,2.99.7,4.64-.16,1.71.32,3.49-.54,5.13-1.02,5.29-.69,10.7-1.42,16.02-1.58.67-2.61-.43-3.69-1.2-13.56-9.67-28.32-16.83-44.28-21.58-3.33-.99-6.56-2.33-9.82-3.55-1.25-.46-2.67-.83-3.33-2.23,2.01-12.51,5.16-24.42,9.79-36.16.78-1.96,1.25-4.05,1.94-6.04"/>
        <path class="cls-5" d="M75.12,112.35c5.26,7.68,11.28,16.76,8.36,26.56-1.04,3.51-6.73,33.05-8.8,33.4-5.84.98-37.87-45.24-38.69-46.26-11.53-14.47,10.57-38.82,22.55-53.52.1,3.21-.23,9.25,1.91,12.25"/>
        <path class="cls-1" d="M142.32,115.24c1.03,2.61.84,5.43,1,8.09,1.03,17.11,1.88,34.24,1.39,51.39-.07,2.53-.92,5-.59,7.57-3.89,4.64-8.47,8.59-12.74,12.86-5.55,5.54-11.08,11.11-16.18,17.07-3.03,3.54-5.83,7.27-8.09,11.38-2.2,3.99-3.74,8.27-5.27,12.96-3.91-6.51-2.16-13.59-3.64-20.08-.76-2.57-.13-5.2-.34-7.8-.13-2.3.14-4.59.32-6.88.52-8.29,2.92-16.15,5.49-23.99,5.02-15.35,14.03-28.45,23.11-41.53,4.35-6.27,9.1-12.26,13-18.85.58-.98,1.18-2.06,2.54-2.2Z"/>
        <path class="cls-1" d="M86.08,217.27c-.88,18.48-1.76,36.96-2.66,55.82-4.58-3.57-8.88-6.92-13.17-10.26-2.59-6.02-3.44-12.42-3.8-18.87-.59-10.65.81-21.08,4.03-31.27.54-1.7,1.13-3.42,1.22-5.24-.08-1.35.03-2.62,1.42-3.36,1.75.07,2.42,1.6,3.38,2.63,3.25,3.47,6.39,7.03,9.58,10.55Z"/>
        <path class="cls-4" d="M73.12,204.09c-.15.96-.31,1.92-.46,2.88-.36,1.68-1.32,2.01-2.77,1.25-8.48-7.68-18.29-13.3-28.51-18.27-1.24-.6-2.48-1.2-3.62-1.98-7.14-3.96-14.76-6.78-22.44-9.48-1.37-.92-3.49-.94-3.8-3.14,0-.43.02-.86.03-1.3,13.57,5.26,27.81,8.76,40.7,15.83,7.06,3.87,13.84,8.13,20.42,12.73.15.49.3.98.45,1.47Z"/>
        <path class="cls-4" d="M147.11,78.37c-.37-.88-.21-1.96-1.01-2.69-.19,1.17-.24,2.31.48,3.35.16,4.67.43,9.33-.25,13.99-1.93,13.29-8.19,24.67-15.79,35.42-8.51,12.04-17.59,23.69-23.73,37.27-4.59,10.15-7.66,20.66-8.68,31.76-1.2,3.58-.33,7.26-.53,10.89.23,2.7-.79,5.5.62,8.12,0-2.71,0-5.41-.01-8.12.17-2.34.34-4.68.51-7.02h0c2.89-17.79,9.2-34.24,18.8-49.51,7.85-12.49,17.36-23.84,24.81-36.59.69-1.03,1.54-2,2.05-3.12,4.96-10.91,7-22.08,2.74-33.75Z"/>
        <path class="cls-3" d="M19.77,179.04c5.97,1.96,11.87,4.41,17.32,7.54,4.18,2.4,6.01,11,8.75,14.94,6.74,9.66,14.02,19.81,18.56,30.63.77-6.45,1.87-12.87,3.44-19.18,1.64-6.62,2.87-5.1,4.82-6,.54,7.46-3.99,15.97-4.77,23.53-.98,9.51-.21,19.14,2.05,28.42,1.52,6.25-2.71,2.4-6.6.45-7.17-3.58-8.65-6.72-13.17-13.54-9.15-13.85-24.71-22.86-32.14-37.91-3.76-7.61-2.85-15.65-4.37-23.9-1.87-10.15,2.55-5.9,8.9-4-.93-.31-1.86-.63-2.78-.97.97.32,4.94,1.78,0,0Z"/>
        <path class="cls-2" d="M15.25,177.52c-2.67,16.43,1.15,30.85,13.03,42.9,7.73,7.84,15.95,15.27,22.37,24.3,2.48,3.49,5.33,6.89,6.09,11.35-12.9-6.56-25.02-14.38-36.78-22.77-1.51-1.08-2.66-2.67-3.97-4.02-.03-.21.01-.5-.11-.61-5.74-5.18-5.13-12.49-6.14-19.12-1.51-10-.76-20.06.55-30.06.19-1.43.19-2.95,1.24-4.14,1.24.73,2.49,1.45,3.73,2.18Z"/>
        <path class="cls-4" d="M121.68,57.95c-.1-1.11-.29-2.18-1.55-3.73.29,1.72.51,3.04.71,4.24-.17.42.18,1,.25,1.49-.54,4.65-1.37,9.19-3.92,13.27-5.4,8.62-11.35,16.84-17.53,24.91-4.74,10.26-9.49,20.52-14.47,31.29-2.45-7.01-5.83-12.69-10.04-17.9-.85-1.28-1.7-2.56-2.55-3.84-.39-.92-.98-1.7-1.79-2.3-1.08,1.59.67,2.08,1.18,3.05.65,1.41,1.41,2.73,2.55,3.81,1.4,2.24,2.93,4.41,4.16,6.74,3.69,6.97,6.16,13.97,3.14,22.11-2.57,6.92-4.6,14.09-5.69,21.45-.46,3.11-.87,6.22-1.38,9.86-2.42-3.34-4.42-6.28-6.6-9.08-6-7.73-13.26-14.3-19.95-21.4-6.96-7.39-12.39-15.57-14.21-25.77-.21-1.16-.78-2.58-1.55-3.52-.25,2.12.09,4.52.42,6.64,1.22,7.84,5.67,14.01,10.19,20.19,6.17,8.43,14.31,15.03,21.04,22.94,4.66,5.47,8.38,11.42,9.97,18.53.21.21.27.46.27.74-.09-.25-.18-.5-.27-.74.01,1.89.02,3.78.03,5.68,1.05-.54,1.24-1.47,1.1-2.53.91-7.78,1.49-15.63,3.49-23.21,6.2-23.49,15.27-45.76,28.61-66.19,4.23-6.47,8.4-12.99,11.6-20.07,2.39-5.31,3.84-10.76,2.78-16.64Z"/>
        <path class="cls-2" d="M52.37,212.11c-.1-4.38-18.06-21.35-14.18-24.88,9.8,4.87,19.64,9.85,28.24,16.7,4.91,3.91,3.21,5.69,1.94,11.49-1.49,6.83-2.59,13.73-3.54,20.65-3.18-8.68-8.02-15.97-12.46-23.97,0-.21.67,1.21,0,0Z"/>
      </g>
    </g>
  </g>
</svg>